<?xml version="1.0" encoding="UTF-8" standalone="no"?>
<svg
   xmlns:dc="http://purl.org/dc/elements/1.1/"
   xmlns:cc="http://creativecommons.org/ns#"
   xmlns:rdf="http://www.w3.org/1999/02/22-rdf-syntax-ns#"
   xmlns:svg="http://www.w3.org/2000/svg"
   xmlns="http://www.w3.org/2000/svg"
   xmlns:sodipodi="http://sodipodi.sourceforge.net/DTD/sodipodi-0.dtd"
   xmlns:inkscape="http://www.inkscape.org/namespaces/inkscape"
   inkscape:version="1.0 (4035a4fb49, 2020-05-01)"
   sodipodi:docname="spinner5.svg"
   id="svg8"
   version="1.1"
   viewBox="0 0 100 100"
   height="100mm"
   width="100mm">
  <defs
     id="defs2" />
  <sodipodi:namedview
     inkscape:window-maximized="1"
     inkscape:window-y="378"
     inkscape:window-x="-11"
     inkscape:window-height="986"
     inkscape:window-width="1920"
     showgrid="false"
     inkscape:document-rotation="0"
     inkscape:current-layer="layer1"
     inkscape:document-units="mm"
     inkscape:cy="184.51687"
     inkscape:cx="215.9169"
     inkscape:zoom="0.98994949"
     inkscape:pageshadow="2"
     inkscape:pageopacity="0.0"
     borderopacity="1.0"
     bordercolor="#666666"
     pagecolor="#ffffff"
     id="base" />
  <metadata
     id="metadata5">
    <rdf:RDF>
      <cc:Work
         rdf:about="">
        <dc:format>image/svg+xml</dc:format>
        <dc:type
           rdf:resource="http://purl.org/dc/dcmitype/StillImage" />
        <dc:title></dc:title>
      </cc:Work>
    </rdf:RDF>
  </metadata>
  <g
     id="layer1"
     inkscape:groupmode="layer"
     inkscape:label="Layer 1">
    <path
       transform="scale(0.26458333)"
       id="path863"
       d="m 176.98632,68.098844 c -10.61691,-4.60505 -16.84045,-11.00336 -20.73153,-21.313713 -3.01352,-7.985043 -2.39864,-18.640111 1.52453,-26.418054 7.41617,-14.7030701 23.87591,-22.6061266 39.05863,-18.7537861 25.89026,6.5691892 35.59527,37.2654461 17.90245,56.6242051 -7.56002,8.271862 -13.29234,10.908995 -24.58239,11.309038 -6.97913,0.247292 -10.03937,-0.08905 -13.17169,-1.44769 z"
       style="fill:#a0a0a0;stroke:none;stroke-width:1.01015" />
    <path
       id="path865"
       d="m 18.582109,30.110679 c -3.009363,-0.96865 -5.467961,-3.63165 -6.263917,-6.784683 -1.033928,-4.095715 1.140685,-8.520001 5.097777,-10.371508 1.364042,-0.638229 1.943015,-0.750113 3.875408,-0.7489 1.895064,0.0012 2.522113,0.118549 3.781319,0.70772 1.851843,0.866459 3.449662,2.422993 4.406898,4.29303 1.040297,2.032304 1.185479,5.066132 0.348641,7.285471 -0.765053,2.028955 -2.746033,4.167156 -4.730547,5.10598 -1.841785,0.871305 -4.702472,1.096489 -6.515579,0.51289 z"
       style="fill:#a0a0a0;stroke:none;stroke-width:0.267269" />
    <path
       transform="scale(0.26458333)"
       id="path869"
       d="m 72.189871,331.46497 c -12.679215,-3.19603 -22.137904,-12.91539 -25.563963,-26.26848 -3.958373,-15.42778 3.620307,-31.01046 18.994531,-39.05503 4.668253,-2.44266 6.482583,-2.79637 14.430943,-2.81331 7.747865,-0.0165 9.934492,0.3759 14.796676,2.65546 7.002012,3.28279 13.039822,9.16655 16.655992,16.23102 3.93183,7.68114 4.48055,19.14758 1.3177,27.53563 -2.88326,7.64655 -10.3806,15.75078 -17.832665,19.27617 -6.161132,2.91468 -16.516353,4.02224 -22.799214,2.43854 z"
       style="fill:#a0a0a0;stroke:none;stroke-width:1.01015" />
    <path
       transform="scale(0.26458333)"
       id="path871"
       d="m 176.98632,375.18522 c -10.61691,-4.60505 -16.84045,-11.00336 -20.73153,-21.31372 -3.01352,-7.98504 -2.39864,-18.64011 1.52453,-26.41805 7.41617,-14.70307 23.87591,-22.60613 39.05863,-18.75379 25.89026,6.56919 35.59527,37.26545 17.90245,56.62421 -7.56002,8.27186 -13.29234,10.90899 -24.58239,11.30904 -6.97913,0.24729 -10.03937,-0.0891 -13.17169,-1.44769 z"
       style="fill:#a0a0a0;stroke:none;stroke-width:1.01015" />
    <path
       id="path873"
       d="m 76.56085,87.700106 c -3.345188,-0.843217 -5.85839,-3.418655 -6.756325,-6.923638 -1.059598,-4.136012 0.915241,-8.213016 5.018164,-10.359874 1.235141,-0.646287 1.715182,-0.739873 3.818186,-0.744355 2.049954,-0.0044 2.6285,0.09946 3.914952,0.70259 1.852615,0.868572 3.450122,2.425317 4.4069,4.294458 1.027136,2.006592 1.184577,5.068715 0.371449,7.224511 -0.763019,2.022938 -2.794963,4.240472 -4.720088,5.151202 -1.651328,0.781203 -4.381013,1.076619 -6.053238,0.655106 z"
       style="fill:#a0a0a0;stroke:none;stroke-width:0.267269" />
    <path
       transform="scale(0.26458333)"
       id="path875"
       d="m 330.5295,221.64203 c -10.6169,-4.60505 -16.84044,-11.00336 -20.73152,-21.31371 -3.01352,-7.98504 -2.39864,-18.64011 1.52452,-26.41806 7.41618,-14.70307 23.87592,-22.60612 39.05863,-18.75378 25.89026,6.56919 35.59527,37.26544 17.90246,56.6242 -7.56002,8.27186 -13.29234,10.909 -24.58239,11.30904 -6.97914,0.24729 -10.03938,-0.089 -13.1717,-1.44769 z"
       style="fill:#a0a0a0;stroke:none;stroke-width:1.01015" />
    <path
       id="path877"
       d="m 76.067575,30.11009 c -1.844585,-0.593733 -3.714006,-1.996051 -4.835903,-3.627583 -3.286215,-4.779009 -1.700041,-10.752353 3.593351,-13.532116 1.238848,-0.650568 1.708867,-0.742199 3.818186,-0.744357 2.092563,-0.0021 2.602307,0.09422 3.919149,0.740898 1.854919,0.910913 3.517855,2.531685 4.435006,4.322563 1.006663,1.965666 1.141087,5.034445 0.316336,7.221725 -0.765051,2.028956 -2.746034,4.167157 -4.730546,5.10598 -1.841783,0.871305 -4.702471,1.096489 -6.515579,0.51289 z"
       style="fill:#a0a0a0;stroke:none;stroke-width:0.267269" />
  </g>
</svg>
