<?xml version="1.0" encoding="UTF-8" standalone="no"?>
<svg
   xmlns:dc="http://purl.org/dc/elements/1.1/"
   xmlns:cc="http://creativecommons.org/ns#"
   xmlns:rdf="http://www.w3.org/1999/02/22-rdf-syntax-ns#"
   xmlns:svg="http://www.w3.org/2000/svg"
   xmlns="http://www.w3.org/2000/svg"
   xmlns:sodipodi="http://sodipodi.sourceforge.net/DTD/sodipodi-0.dtd"
   xmlns:inkscape="http://www.inkscape.org/namespaces/inkscape"
   sodipodi:docname="editing.svg"
   inkscape:version="1.0 (4035a4fb49, 2020-05-01)"
   id="svg837"
   version="1.1"
   viewBox="0 0 200 200"
   height="200mm"
   width="200mm">
  <defs
     id="defs831" />
  <sodipodi:namedview
     inkscape:window-maximized="1"
     inkscape:window-y="-11"
     inkscape:window-x="-11"
     inkscape:window-height="986"
     inkscape:window-width="1920"
     showgrid="false"
     inkscape:document-rotation="0"
     inkscape:current-layer="layer1"
     inkscape:document-units="mm"
     inkscape:cy="414.24242"
     inkscape:cx="368.64409"
     inkscape:zoom="0.7"
     inkscape:pageshadow="2"
     inkscape:pageopacity="0.0"
     borderopacity="1.0"
     bordercolor="#666666"
     pagecolor="#ffffff"
     id="base" />
  <metadata
     id="metadata834">
    <rdf:RDF>
      <cc:Work
         rdf:about="">
        <dc:format>image/svg+xml</dc:format>
        <dc:type
           rdf:resource="http://purl.org/dc/dcmitype/StillImage" />
        <dc:title></dc:title>
      </cc:Work>
    </rdf:RDF>
  </metadata>
  <g
     id="layer1"
     inkscape:groupmode="layer"
     inkscape:label="Layer 1">
    <path
       style="stroke-width:0.273438"
       fill="currentColor"
       d="M 165.62499,135.00001 H 73.750009 V 130.625 c 0,-2.40625 -1.96875,-4.375 -4.375009,-4.375 h -8.749991 c -2.406259,0 -4.375009,1.96875 -4.375009,4.375 v 4.37501 H 34.375009 C 31.96875,135.00001 30,136.96876 30,139.375 v 8.75 c 0,2.40625 1.96875,4.375 4.375009,4.375 H 56.25 v 4.37501 c 0,2.40624 1.96875,4.37499 4.375009,4.37499 H 69.375 c 2.406259,0 4.375009,-1.96875 4.375009,-4.37499 V 152.5 h 91.874981 c 2.40626,0 4.37501,-1.96875 4.37501,-4.375 v -8.75 c 0,-2.40624 -1.96875,-4.37499 -4.37501,-4.37499 z m 0,-43.75001 H 143.75 v -4.375 c 0,-2.406241 -1.96875,-4.374991 -4.37501,-4.374991 H 130.625 c -2.40624,0 -4.37499,1.96875 -4.37499,4.374991 V 91.25 H 34.375009 C 31.96875,91.25 30,93.21875 30,95.625009 V 104.375 c 0,2.40626 1.96875,4.37501 4.375009,4.37501 h 91.875001 v 4.37499 c 0,2.40625 1.96875,4.375 4.37499,4.375 h 8.74999 c 2.40626,0 4.37501,-1.96875 4.37501,-4.375 v -4.37499 h 21.87499 c 2.40626,0 4.37501,-1.96875 4.37501,-4.37501 V 95.625009 C 170,93.21875 168.03125,91.25 165.62499,91.25 Z m 0,-43.75 H 108.75 V 43.125009 C 108.75,40.71875 106.78125,38.75 104.375,38.75 h -8.75 c -2.40625,0 -4.375,1.96875 -4.375,4.375009 V 47.5 H 34.375009 C 31.96875,47.5 30,49.46875 30,51.875 v 8.75 C 30,63.03125 31.96875,65 34.375009,65 H 91.25 v 4.375009 c 0,2.406241 1.96875,4.374991 4.375,4.374991 h 8.75 c 2.40625,0 4.375,-1.96875 4.375,-4.374991 V 65 h 56.87499 C 168.03125,65 170,63.03125 170,60.625 v -8.75 c 0,-2.40625 -1.96875,-4.375 -4.37501,-4.375 z"
       id="path1424" />
  </g>
</svg>
