<?xml version="1.0" encoding="UTF-8" standalone="no"?>
<svg
   xmlns:dc="http://purl.org/dc/elements/1.1/"
   xmlns:cc="http://creativecommons.org/ns#"
   xmlns:rdf="http://www.w3.org/1999/02/22-rdf-syntax-ns#"
   xmlns:svg="http://www.w3.org/2000/svg"
   xmlns="http://www.w3.org/2000/svg"
   xmlns:sodipodi="http://sodipodi.sourceforge.net/DTD/sodipodi-0.dtd"
   xmlns:inkscape="http://www.inkscape.org/namespaces/inkscape"
   sodipodi:docname="socials.svg"
   inkscape:version="1.0 (4035a4fb49, 2020-05-01)"
   id="svg837"
   version="1.1"
   viewBox="0 0 200 200"
   height="200mm"
   width="200mm">
  <defs
     id="defs831" />
  <sodipodi:namedview
     inkscape:window-maximized="1"
     inkscape:window-y="-11"
     inkscape:window-x="-11"
     inkscape:window-height="986"
     inkscape:window-width="1920"
     showgrid="false"
     inkscape:document-rotation="0"
     inkscape:current-layer="layer1"
     inkscape:document-units="mm"
     inkscape:cy="414.24242"
     inkscape:cx="368.64409"
     inkscape:zoom="0.7"
     inkscape:pageshadow="2"
     inkscape:pageopacity="0.0"
     borderopacity="1.0"
     bordercolor="#666666"
     pagecolor="#ffffff"
     id="base" />
  <metadata
     id="metadata834">
    <rdf:RDF>
      <cc:Work
         rdf:about="">
        <dc:format>image/svg+xml</dc:format>
        <dc:type
           rdf:resource="http://purl.org/dc/dcmitype/StillImage" />
        <dc:title></dc:title>
      </cc:Work>
    </rdf:RDF>
  </metadata>
  <g
     id="layer1"
     inkscape:groupmode="layer"
     inkscape:label="Layer 1">
    <path
       style="stroke-width:0.234375"
       fill="currentColor"
       d="m 47.5,92.5 c 8.27344,0 15,-6.72656 15,-15.00001 C 62.5,69.22656 55.77344,62.5 47.5,62.5 39.22656,62.5 32.49999,69.22656 32.49999,77.49999 32.49999,85.77344 39.22656,92.5 47.5,92.5 Z m 105,0 c 8.27344,0 15.00001,-6.72656 15.00001,-15.00001 C 167.50001,69.22656 160.77344,62.5 152.5,62.5 c -8.27344,0 -15,6.72656 -15,14.99999 0,8.27345 6.72656,15.00001 15,15.00001 z m 7.5,7.5 h -14.99999 c -4.12501,0 -7.85157,1.66407 -10.57032,4.35937 9.44532,5.1797 16.14844,14.53125 17.60157,25.64063 h 15.46875 C 171.64844,130 175,126.64844 175,122.5 V 115 c 0,-8.27343 -6.72656,-15 -15,-15 z m -60,0 c 14.50781,0 26.25,-11.74219 26.25,-26.25 C 126.25,59.24218 114.50781,47.5 100,47.5 85.49219,47.5 73.75,59.24218 73.75,73.75 73.75,88.25781 85.49219,100 100,100 Z m 18,7.5 h -1.94532 c -4.87499,2.34375 -10.28906,3.75 -16.05468,3.75 -5.76563,0 -11.15625,-1.40625 -16.05468,-3.75 H 82 c -14.90626,0 -27.00001,12.09375 -27.00001,27 v 6.75 c 0,6.21094 5.03907,11.25 11.25,11.25 h 67.50002 c 6.21093,0 11.25,-5.03906 11.25,-11.25 v -6.75 c 0,-14.90625 -12.09375,-27 -27.00001,-27 z M 65.57031,104.35937 C 62.85156,101.66407 59.125,100 54.99999,100 H 40 c -8.27344,0 -15,6.72657 -15,15 v 7.5 c 0,4.14844 3.35156,7.5 7.49999,7.5 h 15.44532 c 1.47656,-11.10938 8.17968,-20.46093 17.625,-25.64063 z"
       id="path1469" />
  </g>
</svg>
