<?xml version="1.0" encoding="UTF-8" standalone="no"?>
<svg
   xmlns:dc="http://purl.org/dc/elements/1.1/"
   xmlns:cc="http://creativecommons.org/ns#"
   xmlns:rdf="http://www.w3.org/1999/02/22-rdf-syntax-ns#"
   xmlns:svg="http://www.w3.org/2000/svg"
   xmlns="http://www.w3.org/2000/svg"
   xmlns:sodipodi="http://sodipodi.sourceforge.net/DTD/sodipodi-0.dtd"
   xmlns:inkscape="http://www.inkscape.org/namespaces/inkscape"
   sodipodi:docname="facebook.svg"
   inkscape:version="1.0 (4035a4fb49, 2020-05-01)"
   id="svg4379"
   version="1.1"
   viewBox="0 0 200 200"
   height="200mm"
   width="200mm">
  <defs
     id="defs4373" />
  <sodipodi:namedview
     inkscape:window-maximized="1"
     inkscape:window-y="-11"
     inkscape:window-x="-11"
     inkscape:window-height="986"
     inkscape:window-width="1920"
     showgrid="false"
     inkscape:document-rotation="0"
     inkscape:current-layer="layer1"
     inkscape:document-units="mm"
     inkscape:cy="386.45893"
     inkscape:cx="326.72356"
     inkscape:zoom="0.98994949"
     inkscape:pageshadow="2"
     inkscape:pageopacity="0.0"
     borderopacity="1.0"
     bordercolor="#666666"
     pagecolor="#ffffff"
     id="base" />
  <metadata
     id="metadata4376">
    <rdf:RDF>
      <cc:Work
         rdf:about="">
        <dc:format>image/svg+xml</dc:format>
        <dc:type
           rdf:resource="http://purl.org/dc/dcmitype/StillImage" />
        <dc:title></dc:title>
      </cc:Work>
    </rdf:RDF>
  </metadata>
  <g
     id="layer1"
     inkscape:groupmode="layer"
     inkscape:label="Layer 1">
    <path
       style="stroke-width:0.180418"
       d="M 21.403,116.96056 H 14.620419 V 99.97387 H 10 v -5.53052 h 4.62024 v -3.93537 c 0,-4.66341 2.04354,-8.00798 8.807756,-8.00798 1.430644,0 3.676684,0.2897 3.676684,0.2897 v 5.1354 H 24.7456 c -2.403718,0 -3.342241,0.73455 -3.342241,2.76535 v 3.7529 H 27.01468 L 26.515,99.97387 H 21.40318 Z M 36.9658,94.00138 c -0.0988,0 -0.20052,0.004 -0.30114,0.006 -6.2892,0 -9.16668,4.75275 -9.16668,11.49939 0,8.49897 3.73248,11.9005 9.21582,11.9005 3.13722,0 5.1984,-1.32663 6.4512,-3.80228 v 3.35779 h 6.4512 V 94.44556 H 43.165 v 3.46282 c -1.02294,-2.22789 -3.14172,-3.88074 -6.1992,-3.90715 z m 1.64034,5.32076 c 2.6415,0 4.22694,1.85104 4.22694,4.99958 l 0.006,3.21582 c 0,2.12211 -1.3095,4.60482 -4.23306,4.60482 -4.4946,0 -4.37454,-4.87572 -4.37454,-6.49963 0,-5.46253 2.39472,-6.32059 4.37454,-6.32059 z m 13.61538,6.38334 c 0,-2.73624 -0.13032,-11.68945 11.4804,-11.68945 4.66074,0 6.6069,1.48883 6.6069,1.48883 l -1.5642,4.87408 c 0,0 -1.94364,-1.07525 -4.47624,-1.07525 -3.24378,0 -5.3136,1.8892 -5.3136,5.21315 l 0.004,2.38343 c 0,3.19393 1.9971,5.326 5.31665,5.326 2.30724,0 4.43376,-1.08539 4.43376,-1.08539 l 1.56024,4.77228 c 0,0 -1.77948,1.49823 -6.53454,1.49823 -11.05524,0 -11.5128,-8.03276 -11.5128,-11.70591 z m 55.91304,-11.69795 c 6.28938,0 9.21222,4.75275 9.21222,11.49939 0,8.49896 -3.73266,11.90049 -9.216,11.90049 -3.13722,0 -5.45634,-1.32643 -6.70914,-3.80227 v 3.35778 l -6.37002,-0.002 V 83.18517 l 6.76332,-0.5926 v 15.01142 c 0.97614,-2.62629 4.1841,-3.59594 6.31979,-3.59594 z m -1.89612,5.31461 c -2.6415,0 -4.4235,1.85104 -4.4235,4.99958 l -0.006,3.21582 c -0.004,2.12211 1.23408,4.60482 4.4298,4.60482 4.4946,0 4.37454,-4.87572 4.37454,-6.49963 0,-5.46253 -2.39454,-6.32059 -4.37454,-6.32059 z m -24.1947,-5.29598 c -7.1334,0 -10.89936,3.90733 -10.89936,10.85109 v 1.29009 c 0,9.01235 5.28858,11.33266 11.59362,11.33266 6.12846,0 8.90244,-1.72211 8.90244,-1.72211 l -1.26558,-4.58601 c 0,0 -3.26304,1.39479 -6.82596,1.39479 -3.6936,0 -5.2821,-0.94577 -5.68926,-4.51187 h 14.32152 v -3.67912 c 0,-7.5322 -4.22658,-10.3697 -10.1376,-10.3697 z m 0.17189,4.59216 c 2.46925,0 4.06927,1.5212 3.98143,5.04913 h -8.325 c 0.14436,-3.71311 1.86984,-5.04895 4.34357,-5.04895 z m 48.61693,-4.62309 c -7.32546,0 -11.18196,4.14731 -11.18196,11.57951 0,10.19737 6.64776,11.83882 11.1942,11.83882 6.65567,0 11.08368,-3.59991 11.08368,-11.74623 0,-8.47889 -4.9788,-11.6721 -11.09592,-11.6721 z m -0.0922,5.34535 c 3.2211,0 4.49748,2.42194 4.49748,5.1788 v 2.37022 c 0,3.33969 -1.78596,5.27138 -4.50972,5.27138 -2.54736,0 -4.33764,-1.80692 -4.33764,-5.27138 v -2.37022 c 0,-3.69486 2.13029,-5.1788 4.34988,-5.1788 z m 24.6618,-5.34535 c -7.32546,0 -11.18196,4.14731 -11.18196,11.57951 0,10.19737 6.64776,11.83882 11.1942,11.83882 6.6555,0 11.08368,-3.59991 11.08368,-11.74623 0,-8.47889 -4.97898,-11.6721 -11.09592,-11.6721 z m -0.0922,5.34535 c 3.2211,0 4.4973,2.42194 4.4973,5.1788 v 2.37022 c 0,3.33969 -1.78596,5.27138 -4.50954,5.27138 -2.54736,0 -4.33765,-1.80692 -4.33765,-5.27138 v -2.37022 c 0,-3.69486 2.13031,-5.1788 4.34989,-5.1788 z m 13.7439,17.61998 V 83.18465 l 6.78294,-0.59242 v 22.63875 l 6.72948,-10.78745 h 7.16328 l -7.02,11.17262 7.29036,11.34441 h -7.18362 l -6.9795,-11.01547 v 11.01547 z"
       fill="#1877f2"
       id="path4966" />
  </g>
</svg>
