<?xml version="1.0" encoding="UTF-8" standalone="no"?>
<svg
   xmlns:dc="http://purl.org/dc/elements/1.1/"
   xmlns:cc="http://creativecommons.org/ns#"
   xmlns:rdf="http://www.w3.org/1999/02/22-rdf-syntax-ns#"
   xmlns:svg="http://www.w3.org/2000/svg"
   xmlns="http://www.w3.org/2000/svg"
   xmlns:sodipodi="http://sodipodi.sourceforge.net/DTD/sodipodi-0.dtd"
   xmlns:inkscape="http://www.inkscape.org/namespaces/inkscape"
   sodipodi:docname="clock.svg"
   inkscape:version="1.0 (4035a4fb49, 2020-05-01)"
   id="svg1647"
   version="1.1"
   viewBox="0 0 200 200"
   height="200mm"
   width="200mm">
  <defs
     id="defs1641" />
  <sodipodi:namedview
     inkscape:window-maximized="1"
     inkscape:window-y="-11"
     inkscape:window-x="-11"
     inkscape:window-height="986"
     inkscape:window-width="1920"
     showgrid="false"
     inkscape:document-rotation="0"
     inkscape:current-layer="layer1"
     inkscape:document-units="mm"
     inkscape:cy="391.37158"
     inkscape:cx="248.48834"
     inkscape:zoom="0.98994949"
     inkscape:pageshadow="2"
     inkscape:pageopacity="0.0"
     borderopacity="1.0"
     bordercolor="#666666"
     pagecolor="#ffffff"
     id="base" />
  <metadata
     id="metadata1644">
    <rdf:RDF>
      <cc:Work
         rdf:about="">
        <dc:format>image/svg+xml</dc:format>
        <dc:type
           rdf:resource="http://purl.org/dc/dcmitype/StillImage" />
        <dc:title></dc:title>
      </cc:Work>
    </rdf:RDF>
  </metadata>
  <g
     id="layer1"
     inkscape:groupmode="layer"
     inkscape:label="Layer 1">
    <path
       style="stroke-width:0.302419;fill:#b6d1d9;fill-opacity:1"
       fill="currentColor"
       d="M 99.999996,25 C 58.568548,25 25,58.568549 25,99.999999 25,141.43145 58.568548,174.99999 99.999996,174.99999 141.43146,174.99999 175,141.43145 175,99.999999 175,58.568549 141.43146,25 99.999996,25 Z m 0,135.48386 c -33.417342,0 -60.483867,-27.06653 -60.483867,-60.483861 0,-33.417338 27.066525,-60.483869 60.483867,-60.483869 33.417344,0 60.483884,27.066531 60.483884,60.483869 0,33.417331 -27.06654,60.483861 -60.483884,60.483861 z M 118.68952,128.91128 93.014113,110.25201 c -0.937502,-0.69556 -1.481857,-1.78427 -1.481857,-2.93347 V 57.661291 c 0,-1.995968 1.633065,-3.629032 3.62903,-3.629032 h 9.677434 c 1.99597,0 3.62903,1.633064 3.62903,3.629032 v 42.852829 l 20.20161,14.69757 c 1.63306,1.17943 1.96572,3.44758 0.78629,5.08065 l -5.68549,7.83265 c -1.17943,1.60283 -3.44758,1.96574 -5.08064,0.78629 z"
       id="path5788" />
  </g>
</svg>
