<?xml version="1.0" encoding="UTF-8" standalone="no"?>
<svg
   xmlns:dc="http://purl.org/dc/elements/1.1/"
   xmlns:cc="http://creativecommons.org/ns#"
   xmlns:rdf="http://www.w3.org/1999/02/22-rdf-syntax-ns#"
   xmlns:svg="http://www.w3.org/2000/svg"
   xmlns="http://www.w3.org/2000/svg"
   xmlns:sodipodi="http://sodipodi.sourceforge.net/DTD/sodipodi-0.dtd"
   xmlns:inkscape="http://www.inkscape.org/namespaces/inkscape"
   sodipodi:docname="menu.svg"
   inkscape:version="1.0 (4035a4fb49, 2020-05-01)"
   id="svg8"
   version="1.1"
   viewBox="0 0 200 200"
   height="200mm"
   width="200mm">
  <defs
     id="defs2" />
  <sodipodi:namedview
     inkscape:window-maximized="1"
     inkscape:window-y="-11"
     inkscape:window-x="2869"
     inkscape:window-height="1526"
     inkscape:window-width="2880"
     showgrid="false"
     inkscape:document-rotation="0"
     inkscape:current-layer="layer1"
     inkscape:document-units="mm"
     inkscape:cy="560"
     inkscape:cx="400"
     inkscape:zoom="0.35"
     inkscape:pageshadow="2"
     inkscape:pageopacity="0.0"
     borderopacity="1.0"
     bordercolor="#666666"
     pagecolor="#ffffff"
     id="base" />
  <metadata
     id="metadata5">
    <rdf:RDF>
      <cc:Work
         rdf:about="">
        <dc:format>image/svg+xml</dc:format>
        <dc:type
           rdf:resource="http://purl.org/dc/dcmitype/StillImage" />
        <dc:title></dc:title>
      </cc:Work>
    </rdf:RDF>
  </metadata>
  <g
     id="layer1"
     inkscape:groupmode="layer"
     inkscape:label="Layer 1">
    <path
       style="stroke-width:0.178571"
       fill="currentColor"
       d="M 62.857143,77.857143 H 137.14286 C 138.72089,77.857143 140,76.578036 140,75 V 67.857142 C 140,66.279106 138.72089,65 137.14286,65 H 62.857143 C 61.279108,65 60,66.279106 60,67.857142 V 75 c 0,1.578036 1.279108,2.857143 2.857143,2.857143 z m 0,28.571427 h 74.285717 c 1.57803,0 2.85714,-1.27911 2.85714,-2.85714 v -7.142859 c 0,-1.57804 -1.27911,-2.857148 -2.85714,-2.857148 H 62.857143 C 61.279108,93.571424 60,94.850531 60,96.428571 v 7.142859 c 0,1.57803 1.279108,2.85714 2.857143,2.85714 z m 0,28.57143 H 137.14286 C 138.72089,135 140,133.7209 140,132.14286 V 125 c 0,-1.57803 -1.27911,-2.85714 -2.85714,-2.85714 H 62.857143 C 61.279108,122.14286 60,123.42197 60,125 v 7.14286 C 60,133.7209 61.279108,135 62.857143,135 Z"
       id="path843" />
  </g>
</svg>
