<?xml version="1.0" encoding="UTF-8" standalone="no"?>
<svg
   xmlns:dc="http://purl.org/dc/elements/1.1/"
   xmlns:cc="http://creativecommons.org/ns#"
   xmlns:rdf="http://www.w3.org/1999/02/22-rdf-syntax-ns#"
   xmlns:svg="http://www.w3.org/2000/svg"
   xmlns="http://www.w3.org/2000/svg"
   xmlns:sodipodi="http://sodipodi.sourceforge.net/DTD/sodipodi-0.dtd"
   xmlns:inkscape="http://www.inkscape.org/namespaces/inkscape"
   sodipodi:docname="caip.svg"
   inkscape:version="1.0 (4035a4fb49, 2020-05-01)"
   id="svg1647"
   version="1.1"
   viewBox="0 0 200 200"
   height="200mm"
   width="200mm">
  <defs
     id="defs1641" />
  <sodipodi:namedview
     inkscape:window-maximized="1"
     inkscape:window-y="-11"
     inkscape:window-x="-11"
     inkscape:window-height="986"
     inkscape:window-width="1920"
     showgrid="false"
     inkscape:document-rotation="0"
     inkscape:current-layer="layer1"
     inkscape:document-units="mm"
     inkscape:cy="391.37158"
     inkscape:cx="248.48834"
     inkscape:zoom="0.98994949"
     inkscape:pageshadow="2"
     inkscape:pageopacity="0.0"
     borderopacity="1.0"
     bordercolor="#666666"
     pagecolor="#ffffff"
     id="base" />
  <metadata
     id="metadata1644">
    <rdf:RDF>
      <cc:Work
         rdf:about="">
        <dc:format>image/svg+xml</dc:format>
        <dc:type
           rdf:resource="http://purl.org/dc/dcmitype/StillImage" />
        <dc:title></dc:title>
      </cc:Work>
    </rdf:RDF>
  </metadata>
  <g
     id="layer1"
     inkscape:groupmode="layer"
     inkscape:label="Layer 1">
    <path
       id="path5776"
       d="M 53.279865,169.41938 C 46.00445,167.82304 39.626928,161.57346 38.104773,154.54871 37.117483,149.99236 20.236635,41.569841 20.230384,39.744856 c -0.0058,-1.695706 0.114085,-2.17688 0.977939,-3.924768 1.511072,-3.057446 3.910795,-4.906238 7.144093,-5.503945 0.964581,-0.178313 25.55966,-0.24629 72.546214,-0.200503 l 71.08688,0.06927 1.53591,0.620223 c 3.26965,1.320342 5.90975,4.792776 6.23422,8.19967 0.20841,2.188226 -17.13718,113.747497 -18.20149,117.064057 -1.7469,5.44362 -6.01176,10.02977 -11.48474,12.34992 -3.4571,1.46556 -1.68654,1.41672 -50.302222,1.38762 -36.54294,-0.0219 -45.149656,-0.0935 -46.487323,-0.38702 z m 95.854105,-59.48114 c 0,-0.34425 9.02339,-58.287671 9.24617,-59.374026 l 0.15073,-0.734992 H 100.11124 41.691615 v 0.545187 c 0,0.527315 8.926758,57.638261 9.241213,59.122741 l 0.155692,0.73499 h 49.02272 c 35.46446,0 49.02273,-0.0813 49.02273,-0.2939 z"
       style="fill:#798f46;stroke:none;stroke-width:0.267269;fill-opacity:1" />
  </g>
</svg>
