<?xml version="1.0" encoding="UTF-8" standalone="no"?>
<svg
   xmlns:dc="http://purl.org/dc/elements/1.1/"
   xmlns:cc="http://creativecommons.org/ns#"
   xmlns:rdf="http://www.w3.org/1999/02/22-rdf-syntax-ns#"
   xmlns:svg="http://www.w3.org/2000/svg"
   xmlns="http://www.w3.org/2000/svg"
   xmlns:sodipodi="http://sodipodi.sourceforge.net/DTD/sodipodi-0.dtd"
   xmlns:inkscape="http://www.inkscape.org/namespaces/inkscape"
   width="200mm"
   height="200mm"
   viewBox="0 0 200 200"
   version="1.1"
   id="svg1647"
   inkscape:version="1.0 (4035a4fb49, 2020-05-01)"
   sodipodi:docname="espresso.svg">
  <defs
     id="defs1641" />
  <sodipodi:namedview
     id="base"
     pagecolor="#ffffff"
     bordercolor="#666666"
     borderopacity="1.0"
     inkscape:pageopacity="0.0"
     inkscape:pageshadow="2"
     inkscape:zoom="0.98994949"
     inkscape:cx="226.4251"
     inkscape:cy="466.02323"
     inkscape:document-units="mm"
     inkscape:current-layer="layer1"
     inkscape:document-rotation="0"
     showgrid="false"
     inkscape:window-width="1920"
     inkscape:window-height="986"
     inkscape:window-x="-11"
     inkscape:window-y="-11"
     inkscape:window-maximized="1" />
  <metadata
     id="metadata1644">
    <rdf:RDF>
      <cc:Work
         rdf:about="">
        <dc:format>image/svg+xml</dc:format>
        <dc:type
           rdf:resource="http://purl.org/dc/dcmitype/StillImage" />
        <dc:title></dc:title>
      </cc:Work>
    </rdf:RDF>
  </metadata>
  <g
     inkscape:label="Layer 1"
     inkscape:groupmode="layer"
     id="layer1">
    <path
       id="path5199"
       d="m 36.002722,176.4204 c -0.689126,-0.68913 -0.776227,-1.1113 -0.60923,-2.95296 0.367297,-4.05063 3.387807,-8.12654 7.394535,-9.97827 1.649889,-0.76251 2.45151,-0.82484 12.067143,-0.93831 l 10.299851,-0.12153 V 142.70611 122.98289 L 38.482449,96.336588 C 23.700773,81.56946 11.484125,69.06509 11.079176,68.287919 9.3705631,65.008776 10.637603,60.773596 13.938934,58.728962 l 1.830876,-1.133927 h 59.182933 c 59.107837,0 59.184847,0.0011 60.694837,0.782278 0.87303,0.451717 2.03099,1.547865 2.74033,2.594057 1.00507,1.482357 1.22842,2.177515 1.22842,3.823321 0,1.10635 -0.1787,2.490365 -0.39712,3.075588 -0.221,0.592164 -12.37365,13.050637 -27.40327,28.092871 l -27.006159,27.02882 v 19.71868 19.71868 l 10.299851,0.12153 c 9.615628,0.11347 10.417248,0.1758 12.067148,0.93831 4.10458,1.89696 7.06398,5.96584 7.40202,10.17706 0.31333,3.90352 4.16357,3.55825 -39.680503,3.55825 H 36.806806 Z"
       style="fill:#4f3e46;stroke:none;stroke-width:0.377976;fill-opacity:1" />
    <path
       transform="scale(0.26458333)"
       id="path5201"
       d="m 534.82663,414.53495 c -10.96618,-0.86152 -28.74462,-4.85345 -41.42857,-9.30225 -12.35268,-4.3326 -31.42858,-13.58679 -31.42858,-15.24677 0,-0.50249 8.83929,-9.70315 19.64286,-20.44592 l 19.64286,-19.53231 10.09492,3.42638 c 20.68505,7.02083 44.45659,8.06135 64.98614,2.84452 13.01684,-3.30776 33.36708,-13.58027 43.81167,-22.1155 17.43371,-14.2467 32.69845,-38.0058 38.58253,-60.0525 3.4831,-13.05067 3.40907,-44.35003 -0.13515,-57.14286 -10.89988,-39.34281 -39.98184,-69.16659 -78.8071,-80.81729 -16.38578,-4.91705 -42.54768,-5.55542 -58.53301,-1.42825 -27.80303,7.17832 -55.67144,27.16577 -68.75209,49.30954 l -2.57822,4.36457 h -30.38826 -30.38826 l 3.62599,-8.21428 c 23.81493,-53.95019 69.33457,-90.524259 125.92755,-101.180138 18.99985,-3.577475 53.534,-2.185824 71.839,2.894955 30.39652,8.436929 53.2164,21.489033 75.05402,42.928033 8.00323,7.85715 17.94508,19.3732 22.09301,25.59124 46.83757,70.21285 37.04153,160.31003 -23.70253,217.99918 -27.21521,25.84651 -60.93007,41.28073 -99.59177,45.59175 -13.45118,1.4999 -16.5016,1.55436 -29.56701,0.5279 z"
       style="fill:#4f3e46;stroke:none;stroke-width:1.42857;fill-opacity:1" />
  </g>
</svg>
