<?xml version="1.0" encoding="UTF-8" standalone="no"?>
<svg
   xmlns:dc="http://purl.org/dc/elements/1.1/"
   xmlns:cc="http://creativecommons.org/ns#"
   xmlns:rdf="http://www.w3.org/1999/02/22-rdf-syntax-ns#"
   xmlns:svg="http://www.w3.org/2000/svg"
   xmlns="http://www.w3.org/2000/svg"
   xmlns:sodipodi="http://sodipodi.sourceforge.net/DTD/sodipodi-0.dtd"
   xmlns:inkscape="http://www.inkscape.org/namespaces/inkscape"
   sodipodi:docname="margarita.svg"
   inkscape:version="1.0 (4035a4fb49, 2020-05-01)"
   id="svg1647"
   version="1.1"
   viewBox="0 0 200 200"
   height="200mm"
   width="200mm">
  <defs
     id="defs1641" />
  <sodipodi:namedview
     inkscape:window-maximized="1"
     inkscape:window-y="-11"
     inkscape:window-x="-11"
     inkscape:window-height="986"
     inkscape:window-width="1920"
     showgrid="false"
     inkscape:document-rotation="0"
     inkscape:current-layer="layer1"
     inkscape:document-units="mm"
     inkscape:cy="390.47051"
     inkscape:cx="221.86724"
     inkscape:zoom="0.7"
     inkscape:pageshadow="2"
     inkscape:pageopacity="0.0"
     borderopacity="1.0"
     bordercolor="#666666"
     pagecolor="#ffffff"
     id="base" />
  <metadata
     id="metadata1644">
    <rdf:RDF>
      <cc:Work
         rdf:about="">
        <dc:format>image/svg+xml</dc:format>
        <dc:type
           rdf:resource="http://purl.org/dc/dcmitype/StillImage" />
        <dc:title></dc:title>
      </cc:Work>
    </rdf:RDF>
  </metadata>
  <g
     id="layer1"
     inkscape:groupmode="layer"
     inkscape:label="Layer 1">
    <path
       id="path2231"
       d="m 36.002722,179.06625 c -0.689126,-0.68913 -0.776227,-1.1113 -0.60923,-2.95296 0.367297,-4.05063 3.387807,-8.12654 7.394535,-9.97828 1.649892,-0.7625 2.45151,-0.82483 12.067143,-0.9383 l 10.299851,-0.12154 V 145.35196 125.62874 L 38.482449,98.982421 C 23.700773,84.215295 11.484125,71.710922 11.079177,70.933754 9.3705634,67.654611 10.637604,63.419431 13.938934,61.374797 l 1.830876,-1.13393 h 59.182933 c 59.107847,0 59.184847,0.0011 60.694837,0.782281 0.87303,0.451717 2.03099,1.547862 2.74033,2.594054 1.00507,1.48236 1.22842,2.177518 1.22842,3.823324 0,1.10635 -0.1787,2.490365 -0.39712,3.075586 -0.221,0.592166 -12.37365,13.050636 -27.40327,28.092873 L 84.809781,125.63782 v 19.71868 19.71867 l 10.299854,0.12154 c 9.615625,0.11347 10.417245,0.1758 12.067145,0.9383 4.10458,1.89697 7.06398,5.96585 7.40202,10.17707 0.31333,3.90352 4.16357,3.55825 -39.680501,3.55825 H 36.806806 Z"
       style="fill:#cecfa6;stroke:none;stroke-width:0.377976;fill-opacity:1" />
    <path
       transform="scale(0.26458333)"
       id="path2233"
       d="m 534.82663,414.53495 c -10.96618,-0.86153 -28.74461,-4.85346 -41.42857,-9.30226 -12.35268,-4.3326 -31.42857,-13.58678 -31.42857,-15.24677 0,-0.50248 8.83928,-9.70314 19.64285,-20.44591 l 19.64286,-19.53232 10.09492,3.42639 c 20.68505,7.02083 44.45659,8.06134 64.98614,2.84451 13.01684,-3.30775 33.36708,-13.58027 43.81167,-22.1155 17.43371,-14.2467 32.69846,-38.0058 38.58253,-60.0525 3.4831,-13.05067 3.40907,-44.35003 -0.13515,-57.14285 -10.89988,-39.34281 -39.98184,-69.1666 -78.8071,-80.81729 -16.38578,-4.91706 -42.54768,-5.55543 -58.53301,-1.42825 -27.80303,7.17832 -55.67144,27.16576 -68.75209,49.30953 l -2.57822,4.36458 h -30.38826 -30.38826 l 3.62599,-8.21429 c 23.81494,-53.95019 69.33457,-90.524254 125.92755,-101.180132 18.99985,-3.577476 53.534,-2.185825 71.839,2.894954 30.39652,8.436929 53.2164,21.489038 75.05402,42.928038 8.00323,7.85714 17.94508,19.3732 22.09301,25.59124 46.83757,70.21284 37.04153,160.31003 -23.70253,217.99917 -27.21521,25.84652 -60.93007,41.28073 -99.59177,45.59176 -13.45118,1.4999 -16.5016,1.55436 -29.56701,0.5279 z"
       style="fill:#cecfa6;stroke:none;stroke-width:1.42857;fill-opacity:1" />
  </g>
</svg>
