<?xml version="1.0" encoding="UTF-8" standalone="no"?>
<svg
   xmlns:dc="http://purl.org/dc/elements/1.1/"
   xmlns:cc="http://creativecommons.org/ns#"
   xmlns:rdf="http://www.w3.org/1999/02/22-rdf-syntax-ns#"
   xmlns:svg="http://www.w3.org/2000/svg"
   xmlns="http://www.w3.org/2000/svg"
   xmlns:sodipodi="http://sodipodi.sourceforge.net/DTD/sodipodi-0.dtd"
   xmlns:inkscape="http://www.inkscape.org/namespaces/inkscape"
   sodipodi:docname="mojito.svg"
   inkscape:version="1.0 (4035a4fb49, 2020-05-01)"
   id="svg1647"
   version="1.1"
   viewBox="0 0 200 200"
   height="200mm"
   width="200mm">
  <defs
     id="defs1641" />
  <sodipodi:namedview
     inkscape:window-maximized="1"
     inkscape:window-y="-11"
     inkscape:window-x="-11"
     inkscape:window-height="986"
     inkscape:window-width="1920"
     showgrid="false"
     inkscape:document-rotation="0"
     inkscape:current-layer="layer1"
     inkscape:document-units="mm"
     inkscape:cy="390.47051"
     inkscape:cx="221.86724"
     inkscape:zoom="0.7"
     inkscape:pageshadow="2"
     inkscape:pageopacity="0.0"
     borderopacity="1.0"
     bordercolor="#666666"
     pagecolor="#ffffff"
     id="base" />
  <metadata
     id="metadata1644">
    <rdf:RDF>
      <cc:Work
         rdf:about="">
        <dc:format>image/svg+xml</dc:format>
        <dc:type
           rdf:resource="http://purl.org/dc/dcmitype/StillImage" />
        <dc:title></dc:title>
      </cc:Work>
    </rdf:RDF>
  </metadata>
  <g
     id="layer1"
     inkscape:groupmode="layer"
     inkscape:label="Layer 1">
    <path
       id="path2256"
       d="m 51.547879,168.80477 c -6.206895,-2.12389 -10.56276,-6.26951 -12.647057,-12.03662 -0.621152,-1.71869 -3.457115,-18.8874 -9.874239,-59.777904 -8.450647,-53.848293 -8.9738,-57.476268 -8.529886,-59.153274 0.91187,-3.444832 3.730305,-6.424305 6.879145,-7.2722 0.932095,-0.250986 25.929566,-0.347199 73.363618,-0.282366 l 71.94979,0.09834 1.56036,0.834644 c 3.26624,1.747118 5.43219,5.235533 5.43219,8.748898 0,1.648277 -17.11087,111.965972 -17.82602,114.928372 -1.14793,4.75519 -5.30013,10.10098 -9.62373,12.39016 -4.77491,2.52812 -1.58073,2.38316 -52.277328,2.3724 l -45.949999,-0.01 z m 97.672831,-59.52149 c 0.50683,-2.44981 9.27398,-59.205225 9.16276,-59.316445 -0.0675,-0.06749 -26.39532,-0.07964 -58.506282,-0.02701 l -58.383574,0.09569 4.737251,30.1436 4.737251,30.143605 h 49.018774 49.01878 z"
       style="fill:#95a716;fill-opacity:1;stroke:none;stroke-width:0.377976" />
  </g>
</svg>
