<?xml version="1.0" encoding="UTF-8" standalone="no"?>
<svg
   xmlns:dc="http://purl.org/dc/elements/1.1/"
   xmlns:cc="http://creativecommons.org/ns#"
   xmlns:rdf="http://www.w3.org/1999/02/22-rdf-syntax-ns#"
   xmlns:svg="http://www.w3.org/2000/svg"
   xmlns="http://www.w3.org/2000/svg"
   xmlns:sodipodi="http://sodipodi.sourceforge.net/DTD/sodipodi-0.dtd"
   xmlns:inkscape="http://www.inkscape.org/namespaces/inkscape"
   width="200mm"
   height="200mm"
   viewBox="0 0 200 200"
   version="1.1"
   id="svg1647"
   inkscape:version="1.0 (4035a4fb49, 2020-05-01)"
   sodipodi:docname="pinaColada.svg">
  <defs
     id="defs1641" />
  <sodipodi:namedview
     id="base"
     pagecolor="#ffffff"
     bordercolor="#666666"
     borderopacity="1.0"
     inkscape:pageopacity="0.0"
     inkscape:pageshadow="2"
     inkscape:zoom="0.98994949"
     inkscape:cx="248.48834"
     inkscape:cy="391.37158"
     inkscape:document-units="mm"
     inkscape:current-layer="layer1"
     inkscape:document-rotation="0"
     showgrid="false"
     inkscape:window-width="1920"
     inkscape:window-height="986"
     inkscape:window-x="-11"
     inkscape:window-y="-11"
     inkscape:window-maximized="1" />
  <metadata
     id="metadata1644">
    <rdf:RDF>
      <cc:Work
         rdf:about="">
        <dc:format>image/svg+xml</dc:format>
        <dc:type
           rdf:resource="http://purl.org/dc/dcmitype/StillImage" />
        <dc:title></dc:title>
      </cc:Work>
    </rdf:RDF>
  </metadata>
  <g
     inkscape:label="Layer 1"
     inkscape:groupmode="layer"
     id="layer1">
    <path
       id="path2858"
       d="m 54.736743,169.67212 c -2.260711,-0.2957 -5.612805,-1.51182 -7.769365,-2.81868 -3.63695,-2.20396 -6.979135,-6.42378 -8.345702,-10.53722 C 37.790979,153.81578 20.266559,42.793661 20.25217,39.940248 c -0.01296,-2.5703 0.769099,-4.527483 2.598819,-6.503799 0.842849,-0.910379 2.063844,-1.863471 2.984121,-2.329365 l 1.557586,-0.788538 72.020871,-0.06876 c 79.549863,-0.07595 73.409193,-0.207198 76.081523,1.62614 2.45084,1.681382 4.37487,5.142984 4.37487,7.871023 0,1.400577 -17.58625,114.057761 -18.07488,115.787371 -0.59284,2.09847 -2.27474,5.20636 -3.86973,7.15066 -2.38223,2.90396 -6.062,5.26782 -10.17558,6.53673 l -1.95668,0.60358 -44.63401,0.0404 c -24.548702,0.0222 -45.438754,-0.0649 -46.422337,-0.19354 z m 94.397217,-59.78976 c 0,-0.22573 8.97174,-57.900205 9.20665,-59.184513 l 0.13442,-0.734992 h -58.3917 c -55.916599,0 -58.391715,0.02027 -58.391715,0.478118 0,0.492543 8.982578,57.980367 9.227635,59.056177 l 0.13698,0.60135 h 49.03887 c 26.97137,0 49.03886,-0.0973 49.03886,-0.21614 z"
       style="fill:#cdbe96;stroke:none;stroke-width:0.267269;fill-opacity:1" />
  </g>
</svg>
